#!OML:ASF F:\VICON\USERDATA\INSTALL\rory3\rory3.ASF
:FULLY-SPECIFIED
:DEGREES
4963
root 6.84961 17.7209 11.319 539.788 -20.3892 535.814
lowerback 13.0817 2.22464 -2.70089
upperback 0.596692 2.51647 0.725292
thorax -6.86436 1.28744 1.82237
lowerneck -24.7993 1.13408 -9.88504
upperneck 33.5268 3.49433 3.63375
head 15.8052 0.243154 3.84881
rclavicle -3.37437e-014 2.38542e-015
rhumerus -36.8876 -12.1316 -76.5253
rradius 39.1939
rwrist 6.24769
rhand -17.1918 13.36
rfingers 7.12502
rthumb 9.05029 -16.4259
lclavicle -3.37437e-014 2.38542e-015
lhumerus -33.3465 8.40455 74.9771
lradius 33.5498
lwrist -2.45387
lhand -21.3664 23.5132
lfingers 7.12502
lthumb 5.02057 53.4337
rfemur -13.4786 -11.4813 15.9441
rtibia 49.3229
rfoot -23.276 8.9039
rtoes -20.7996
lfemur -3.96206 -3.03841 -22.9151
ltibia 24.5102
lfoot -16.3864 -7.45243
ltoes -9.98117
4964
root 6.8272 17.7099 11.3456 539.943 -20.2781 535.746
lowerback 12.8072 2.25901 -2.76435
upperback 0.63101 2.55916 0.681096
thorax -6.67706 1.3082 1.81238
lowerneck -24.8135 1.12164 -9.86174
upperneck 33.59 3.48675 3.56119
head 15.8434 0.22512 3.81406
rclavicle -3.65764e-014 -1.82882e-014
rhumerus -36.8668 -11.8638 -76.7055
rradius 39.5968
rwrist 6.10651
rhand -17.373 13.5158
rfingers 7.12502
rthumb 8.87546 -16.2776
lclavicle -3.65764e-014 -1.82882e-014
lhumerus -33.3348 8.2608 75.0207
lradius 33.462
lwrist -2.16033
lhand -20.5703 24.0701
lfingers 7.12502
lthumb 5.78926 53.971
rfemur -13.2863 -12.0672 16.4655
rtibia 48.8825
rfoot -22.4621 9.66159
rtoes -15.4909
lfemur -4.33554 -2.67286 -23.0199
ltibia 24.8834
lfoot -16.6155 -7.74666
ltoes -10.2012
4965
root 6.80477 17.699 11.3754 540.055 -20.1415 535.769
lowerback 12.6995 2.27109 -2.64975
upperback 0.569097 2.5932 0.6005
thorax -6.6752 1.3226 1.65833
lowerneck -24.6536 1.14337 -9.81271
upperneck 33.606 3.46595 3.55087
head 15.8171 0.216485 3.79263
rclavicle -8.74653e-015 7.15625e-015
rhumerus -36.9206 -11.5269 -76.9707
rradius 39.925
rwrist 5.73256
rhand -17.5594 13.73
rfingers 7.12502
rthumb 8.69558 -16.0709
lclavicle -8.74653e-015 7.15625e-015
lhumerus -33.5385 8.01104 74.9631
lradius 33.4847
lwrist -1.84385
lhand -20.1349 25.0862
lfingers 7.12502
lthumb 6.2096 54.9752
rfemur -13.0371 -12.3615 17.0767
rtibia 48.2392
rfoot -21.5888 10.0935
rtoes -8.44875
lfemur -4.67319 -2.50921 -23.0409
ltibia 25.1928
lfoot -16.7524 -7.93581
ltoes -10.0544
4966
root 6.7868 17.695 11.4061 540.139 -20.0418 535.777
lowerback 12.7173 2.26979 -2.5756
upperback 0.486712 2.60041 0.535426
thorax -6.76663 1.326 1.54408
lowerneck -24.5792 1.15904 -9.84074
upperneck 33.7157 3.46001 3.58542
head 15.8515 0.202615 3.81188
rclavicle 5.76476e-015 -1.35174e-014
rhumerus -36.9961 -11.2823 -77.1605
rradius 40.2461
rwrist 5.565
rhand -17.6271 13.6895
rfingers 7.12502
rthumb 8.63024 -16.1141
lclavicle 5.76476e-015 -1.35174e-014
lhumerus -33.715 8.17396 74.7971
lradius 33.3346
lwrist -2.07695
lhand -20.022 25.6378
lfingers 7.12502
lthumb 6.31855 55.5236
rfemur -12.674 -12.4185 17.6387
rtibia 47.3766
rfoot -20.9261 9.78692
rtoes -2.43139
lfemur -4.99069 -2.30065 -23.0473
ltibia 25.4825
lfoot -16.77 -8.29079
ltoes -9.1031
4967
root 6.77165 17.6902 11.4348 540.224 -19.9539 535.705
lowerback 12.6684 2.29998 -2.65901
upperback 0.474336 2.62941 0.515595
thorax -6.75679 1.34301 1.56597
lowerneck -24.5477 1.16568 -9.89187
upperneck 33.8004 3.47686 3.58149
head 15.8831 0.192479 3.82333
rclavicle -8.21975e-014 7.95139e-016
rhumerus -37.0084 -11.1598 -77.196
rradius 40.5073
rwrist 5.62071
rhand -17.3899 13.3428
rfingers 7.12502
rthumb 8.85914 -16.4512
lclavicle -8.21975e-014 7.95139e-016
lhumerus -33.8013 8.48147 74.7228
lradius 33.1484
lwrist -2.48082
lhand -19.8504 25.2579
lfingers 7.12502
lthumb 6.48421 55.1387
rfemur -12.2032 -12.1203 18.0579
rtibia 46.2989
rfoot -20.6503 8.06932
rtoes 2.14711
lfemur -5.30686 -1.95169 -23.1143
ltibia 25.8148
lfoot -16.9697 -8.71609
ltoes -8.87924
4968
root 6.75545 17.6784 11.4631 540.302 -19.7874 535.632
lowerback 12.5629 2.38176 -2.69606
upperback 0.472924 2.73359 0.467965
thorax -6.70379 1.39438 1.5206
lowerneck -24.3384 1.17681 -9.88665
upperneck 33.7559 3.45261 3.5838
head 15.8152 0.184378 3.81099
rclavicle 2.26118e-014 -1.19271e-014
rhumerus -36.9666 -11.0214 -77.2183
rradius 40.5767
rwrist 5.63413
rhand -17.3987 13.5124
rfingers 7.12502
rthumb 8.85066 -16.282
lclavicle 2.26118e-014 -1.19271e-014
lhumerus -33.9407 8.35318 74.7791
lradius 33.1847
lwrist -2.48388
lhand -19.6663 25.3129
lfingers 7.12502
lthumb 6.66196 55.1881
rfemur -11.7324 -11.5958 18.3793
rtibia 45.0521
rfoot -21.2772 5.09591
rtoes 2.9737
lfemur -5.62858 -1.69984 -23.1973
ltibia 26.2078
lfoot -17.3936 -8.9331
ltoes -9.01723
4969
root 6.73819 17.6616 11.4929 540.256 -19.5546 535.762
lowerback 12.5364 2.44701 -2.47175
upperback 0.478078 2.85084 0.433689
thorax -6.67604 1.4438 1.33756
lowerneck -24.2271 1.20338 -9.8184
upperneck 33.8248 3.42927 3.59091
head 15.8253 0.176106 3.79664
rclavicle 1.44119e-014 2.38542e-014
rhumerus -36.9062 -10.7457 -77.3262
rradius 40.6191
rwrist 5.45309
rhand -17.6253 13.8845
rfingers 7.12502
rthumb 8.6319 -15.919
lclavicle 1.44119e-014 2.38542e-014
lhumerus -34.0435 8.26478 74.8179
lradius 33.2523
lwrist -2.4925
lhand -20.3216 24.7505
lfingers 7.12502
lthumb 6.02935 54.6447
rfemur -11.2143 -10.8723 18.8255
rtibia 43.7329
rfoot -22.5816 1.83259
rtoes -0.204945
lfemur -5.88514 -1.56533 -23.0873
ltibia 26.6613
lfoot -17.7441 -8.97213
ltoes -9.242
4970
root 6.72137 17.6451 11.525 540.2 -19.3579 535.943
lowerback 12.5262 2.45203 -2.23889
upperback 0.496278 2.89242 0.462225
thorax -6.64236 1.45667 1.2299
lowerneck -24.1748 1.25502 -9.69057
upperneck 33.8411 3.50329 3.41034
head 15.8235 0.19188 3.70902
rclavicle 4.77083e-015 2.38542e-014
rhumerus -36.7626 -10.4134 -77.3975
rradius 40.6666
rwrist 5.22564
rhand -17.6371 13.6209
rfingers 7.12502
rthumb 8.62052 -16.1831
lclavicle 4.77083e-015 2.38542e-014
lhumerus -34.1216 8.51451 74.8054
lradius 33.1857
lwrist -2.69603
lhand -20.3749 24.7281
lfingers 7.12502
lthumb 5.97788 54.6238
rfemur -10.7 -10.0628 19.2876
rtibia 42.4498
rfoot -23.481 -0.610096
rtoes -2.04045
lfemur -6.18325 -1.36873 -22.9115
ltibia 27.1869
lfoot -18.0135 -9.04038
ltoes -9.97169
4971
root 6.70421 17.6302 11.5572 540.228 -19.2056 535.995
lowerback 12.451 2.45896 -2.12425
upperback 0.534463 2.91924 0.468529
thorax -6.55509 1.46517 1.17101
lowerneck -24.1414 1.26564 -9.67684
upperneck 33.7809 3.55056 3.30382
head 15.7871 0.201225 3.66648
rclavicle -2.66868e-014 1.43125e-014
rhumerus -36.5293 -10.1807 -77.4135
rradius 40.6786
rwrist 5.02381
rhand -17.4712 13.3297
rfingers 7.12502
rthumb 8.78067 -16.4676
lclavicle -2.66868e-014 1.43125e-014
lhumerus -34.1348 8.71058 74.8161
lradius 33.074
lwrist -2.90758
lhand -19.2415 25.4163
lfingers 7.12502
lthumb 7.07203 55.2781
rfemur -10.2479 -9.35546 19.558
rtibia 41.2647
rfoot -23.8063 -1.42749
rtoes 0.17532
lfemur -6.58244 -1.16667 -22.8629
ltibia 27.7959
lfoot -18.5066 -9.16545
ltoes -10.5529
4972
root 6.6862 17.6163 11.5903 540.228 -18.9913 536.075
lowerback 12.4651 2.53712 -1.91055
upperback 0.530328 3.05072 0.433567
thorax -6.55911 1.52241 0.989418
lowerneck -24.1359 1.23145 -9.71613
upperneck 33.8324 3.49377 3.34625
head 15.8137 0.174047 3.68209
rclavicle 5.725e-014 1.43125e-014
rhumerus -36.4472 -10.0736 -77.3835
rradius 40.7284
rwrist 4.90707
rhand -17.5199 13.2458
rfingers 7.12502
rthumb 8.73368 -16.5536
lclavicle 5.725e-014 1.43125e-014
lhumerus -34.2417 8.63014 74.9242
lradius 33.2004
lwrist -2.98618
lhand -19.3782 24.1619
lfingers 7.12502
lthumb 6.94009 54.0282
rfemur -9.79138 -8.69044 19.767
rtibia 40.186
rfoot -24.0041 -1.12962
rtoes 4.2047
lfemur -7.00693 -1.08031 -22.7869
ltibia 28.4834
lfoot -19.1403 -9.25919
ltoes -10.5522
4973
root 6.66816 17.6037 11.6246 540.138 -18.7673 536.303
lowerback 12.572 2.59473 -1.54829
upperback 0.501585 3.17798 0.446059
thorax -6.63447 1.57404 0.770652
lowerneck -24.1479 1.21979 -9.6835
upperneck 33.9108 3.46623 3.31723
head 15.8589 0.154631 3.66117
rclavicle -5.6753e-014 1.43125e-014
rhumerus -36.4271 -9.93715 -77.3258
rradius 40.7502
rwrist 4.84943
rhand -17.6022 13.3805
rfingers 7.12502
rthumb 8.65426 -16.4221
lclavicle -5.6753e-014 1.43125e-014
lhumerus -34.4467 8.65576 75.0289
lradius 33.4089
lwrist -3.09001
lhand -19.3077 23.528
lfingers 7.12502
lthumb 7.0081 53.392
rfemur -9.30956 -7.93706 20.0629
rtibia 39.2126
rfoot -24.269 -1.44081
rtoes 5.95156
lfemur -7.42315 -0.975136 -22.5516
ltibia 29.2059
lfoot -19.7455 -9.31024
ltoes -11.2185
4974
root 6.64719 17.5926 11.6612 539.994 -18.6349 536.7
lowerback 12.6156 2.57631 -1.03478
upperback 0.528206 3.23168 0.553459
thorax -6.60931 1.58497 0.58461
lowerneck -24.1431 1.23435 -9.62324
upperneck 33.8513 3.50486 3.21472
head 15.8307 0.168194 3.61194
rclavicle -2.71341e-014 -1.03368e-014
rhumerus -36.2422 -9.74693 -77.2244
rradius 40.6291
rwrist 4.74625
rhand -17.6266 13.6126
rfingers 7.12502
rthumb 8.63068 -16.191
lclavicle -2.71341e-014 -1.03368e-014
lhumerus -34.571 9.00446 75.0937
lradius 33.493
lwrist -3.39039
lhand -18.5981 23.6854
lfingers 7.12502
lthumb 7.69308 53.5255
rfemur -8.87516 -7.31823 20.4607
rtibia 38.3272
rfoot -24.6358 -2.50721
rtoes 3.49945
lfemur -7.84784 -1.03354 -22.1663
ltibia 29.9568
lfoot -20.2819 -9.28718
ltoes -12.7131
4975
root 6.62506 17.5842 11.6988 539.952 -18.5866 536.947
lowerback 12.6218 2.54214 -0.595943
upperback 0.539578 3.25009 0.5855
thorax -6.57797 1.58049 0.368852
lowerneck -24.1109 1.27871 -9.51487
upperneck 33.8142 3.55534 3.12558
head 15.8059 0.192943 3.56263
rclavicle 7.41964e-014 -6.36111e-015
rhumerus -36.0728 -9.73641 -77.066
rradius 40.5077
rwrist 4.69793
rhand -17.4866 13.7366
rfingers 7.12502
rthumb 8.76576 -16.0613
lclavicle 7.41964e-014 -6.36111e-015
lhumerus -34.6467 9.17398 75.1993
lradius 33.5823
lwrist -3.40405
lhand -19.126 22.4338
lfingers 7.12502
lthumb 7.18356 52.2919
rfemur -8.54911 -6.89705 20.6407
rtibia 37.5526
rfoot -24.8892 -2.97692
rtoes 0.937898
lfemur -8.33262 -1.32373 -21.9417
ltibia 30.7053
lfoot -20.7678 -9.32953
ltoes -14.0822
4976
root 6.60166 17.5821 11.7331 539.879 -18.5665 537.167
lowerback 12.7233 2.48697 -0.197226
upperback 0.501735 3.23748 0.63317
thorax -6.65512 1.56238 0.192234
lowerneck -24.1391 1.36362 -9.42889
upperneck 33.9648 3.66575 3.04097
head 15.8803 0.221731 3.53684
rclavicle 1.23246e-014 -3.02153e-014
rhumerus -36.0033 -9.66002 -76.8533
rradius 40.43
rwrist 4.67074
rhand -17.3369 13.5279
rfingers 7.12502
rthumb 8.91025 -16.2639
lclavicle 1.23246e-014 -3.02153e-014
lhumerus -34.8796 9.38141 75.3388
lradius 33.7526
lwrist -3.25781
lhand -19.667 23.0018
lfingers 7.12502
lthumb 6.66128 52.877
rfemur -8.21404 -6.80714 20.72
rtibia 36.8951
rfoot -24.9111 -2.41571
rtoes 0.887696
lfemur -8.78208 -1.60618 -21.729
ltibia 31.4266
lfoot -21.1409 -9.51017
ltoes -15.1386
